#tb 0: 1/25
0,          0,          0,        1,  3110400, 0xf9342188
0,          1,          1,        1,  3110400, 0x46638dc4
0,          2,          2,        1,  3110400, 0x96da436e
0,          3,          3,        1,  3110400, 0xae9ee064
0,          4,          4,        1,  3110400, 0x03fc9d17
0,          5,          5,        1,  3110400, 0xd7ba9ab8
0,          6,          6,        1,  3110400, 0x9f3cc881
0,          7,          7,        1,  3110400, 0x911c9e2a
0,          8,          8,        1,  3110400, 0x2c1bdec1
0,          9,          9,        1,  3110400, 0xffc2cfb2
0,         10,         10,        1,  3110400, 0x34136d4c
0,         11,         11,        1,  3110400, 0x400dca0c
0,         12,         12,        1,  3110400, 0x5a3d3c71
0,         13,         13,        1,  3110400, 0x5bd262f9
0,         14,         14,        1,  3110400, 0x27bbec47
0,         15,         15,        1,  3110400, 0x53ca3f78
0,         16,         16,        1,  3110400, 0x7fee4170
0,         17,         17,        1,  3110400, 0x393d318c
0,         18,         18,        1,  3110400, 0x203f26f1
0,         19,         19,        1,  3110400, 0x35e00c3e
0,         20,         20,        1,  3110400, 0x995afdde
0,         21,         21,        1,  3110400, 0xa8b623b9
0,         22,         22,        1,  3110400, 0x047e53bd
0,         23,         23,        1,  3110400, 0xc7e69515
0,         24,         24,        1,  3110400, 0x7e5ade49
0,         25,         25,        1,  3110400, 0x863cddc9
0,         26,         26,        1,  3110400, 0xb1f6189c
0,         27,         27,        1,  3110400, 0x622d6d1d
0,         28,         28,        1,  3110400, 0x1e82ef1a
0,         29,         29,        1,  3110400, 0x06a7054a
0,         30,         30,        1,  3110400, 0x736bd4a9
0,         31,         31,        1,  3110400, 0x1db8ead3
0,         32,         32,        1,  3110400, 0x1d872697
0,         33,         33,        1,  3110400, 0x86b11604
0,         34,         34,        1,  3110400, 0x54bee045
0,         35,         35,        1,  3110400, 0x3577fa15
0,         36,         36,        1,  3110400, 0x717b6c0b
0,         37,         37,        1,  3110400, 0x5e0f0b6e
0,         38,         38,        1,  3110400, 0x054ecc86
0,         39,         39,        1,  3110400, 0x9ec29ad1
0,         40,         40,        1,  3110400, 0x7c3b56e4
0,         41,         41,        1,  3110400, 0xcf4cf721
0,         42,         42,        1,  3110400, 0x43c01adb
0,         43,         43,        1,  3110400, 0x6abb4879
0,         44,         44,        1,  3110400, 0x90473c9f
0,         45,         45,        1,  3110400, 0x5f5bb9a9
0,         46,         46,        1,  3110400, 0x08678e6b
0,         47,         47,        1,  3110400, 0xf4ad0c9b
0,         48,         48,        1,  3110400, 0x22870cc8
0,         49,         49,        1,  3110400, 0xb417cf63
0,         50,         50,        1,  3110400, 0xb7a1588e
0,         51,         51,        1,  3110400, 0x7a35ac81
0,         52,         52,        1,  3110400, 0xcd1c6d82
0,         53,         53,        1,  3110400, 0x181b9920
0,         54,         54,        1,  3110400, 0xf2417d5e
0,         55,         55,        1,  3110400, 0x8a67e02b
0,         56,         56,        1,  3110400, 0xe7b99077
0,         57,         57,        1,  3110400, 0x6814e5c2
0,         58,         58,        1,  3110400, 0xd8bce44d
0,         59,         59,        1,  3110400, 0x9faf4ebc
0,         60,         60,        1,  3110400, 0x3daa5fbf
0,         61,         61,        1,  3110400, 0x747921ba
0,         62,         62,        1,  3110400, 0xbe30214e
0,         63,         63,        1,  3110400, 0x8f5533fe
0,         64,         64,        1,  3110400, 0x835a4545
0,         65,         65,        1,  3110400, 0xfa99f4c8
0,         66,         66,        1,  3110400, 0x9559c5db
0,         67,         67,        1,  3110400, 0xd0d096f8
0,         68,         68,        1,  3110400, 0x7b24dbb0
0,         69,         69,        1,  3110400, 0x4a8aa189
0,         70,         70,        1,  3110400, 0x876bab32
0,         71,         71,        1,  3110400, 0xc930bec9
0,         72,         72,        1,  3110400, 0x009841d8
0,         73,         73,        1,  3110400, 0x93e5be89
0,         74,         74,        1,  3110400, 0x82260331
0,         75,         75,        1,  3110400, 0x7ef2e971
0,         76,         76,        1,  3110400, 0x606b638a
0,         77,         77,        1,  3110400, 0xf08b84df
0,         78,         78,        1,  3110400, 0x8a609222
0,         79,         79,        1,  3110400, 0xa76cb2f3
0,         80,         80,        1,  3110400, 0x2b611cb3
0,         81,         81,        1,  3110400, 0x81d5b315
0,         82,         82,        1,  3110400, 0x6f385e43
0,         83,         83,        1,  3110400, 0x5959a754
0,         84,         84,        1,  3110400, 0x1cf4935c
0,         85,         85,        1,  3110400, 0xc8da3639
0,         86,         86,        1,  3110400, 0x50a2ee3d
0,         87,         87,        1,  3110400, 0xd33ad53a
0,         88,         88,        1,  3110400, 0xe7ed4eff
0,         89,         89,        1,  3110400, 0x7d72d260
0,         90,         90,        1,  3110400, 0x16ca295b
0,         91,         91,        1,  3110400, 0xf126df1d
0,         92,         92,        1,  3110400, 0x0aca09d1
0,         93,         93,        1,  3110400, 0x6aefb52b
0,         94,         94,        1,  3110400, 0xf797ee6d
0,         95,         95,        1,  3110400, 0xf1053ace
0,         96,         96,        1,  3110400, 0xf7f91618
0,         97,         97,        1,  3110400, 0xc711acf8
0,         98,         98,        1,  3110400, 0x31123f40
0,         99,         99,        1,  3110400, 0xc7b703dc
